<?xml version="1.0" encoding="UTF-8"?>
<svg version="1.1" xmlns="http://www.w3.org/2000/svg" width="83" height="74">
<path d="M0 0 C0.74886475 0.00523682 1.49772949 0.01047363 2.26928711 0.01586914 C3.07817383 0.0190918 3.88706055 0.02231445 4.72045898 0.02563477 C5.5705957 0.03401367 6.42073242 0.04239258 7.29663086 0.05102539 C8.15063477 0.05553711 9.00463867 0.06004883 9.88452148 0.06469727 C12.00108749 0.07652166 14.11761771 0.0944577 16.23413086 0.11352539 C17.1709349 4.05252821 17.33845751 7.69528223 17.29663086 11.73852539 C17.28760742 12.86516602 17.27858398 13.99180664 17.26928711 15.15258789 C17.25768555 16.12969727 17.24608398 17.10680664 17.23413086 18.11352539 C17.23413086 19.10352539 17.23413086 20.09352539 17.23413086 21.11352539 C17.23413086 22.78019206 17.23413086 24.44685872 17.23413086 26.11352539 C18.88413086 25.78352539 20.53413086 25.45352539 22.23413086 25.11352539 C22.61631853 23.45737882 22.94808188 21.78895515 23.23413086 20.11352539 C22.90413086 19.78352539 22.57413086 19.45352539 22.23413086 19.11352539 C22.16123573 17.32322101 22.15046949 15.53018821 22.17163086 13.73852539 C22.1806543 12.76141602 22.18967773 11.78430664 22.19897461 10.77758789 C22.21057617 9.89844727 22.22217773 9.01930664 22.23413086 8.11352539 C22.23413086 7.12352539 22.23413086 6.13352539 22.23413086 5.11352539 C22.56413086 3.46352539 22.89413086 1.81352539 23.23413086 0.11352539 C29.50413086 0.11352539 35.77413086 0.11352539 42.23413086 0.11352539 C42.23413086 7.11352539 42.23413086 7.11352539 42.17163086 10.05102539 C42.08344314 13.15613735 42.08344314 13.15613735 43.23413086 16.11352539 C43.06913086 16.75290039 42.90413086 17.39227539 42.73413086 18.05102539 C42.15117258 20.4557283 42.6253474 21.75448948 43.23413086 24.11352539 C42.73913086 25.59852539 42.73913086 25.59852539 42.23413086 27.11352539 C42.16610119 28.84147891 42.14917441 30.57187904 42.17163086 32.30102539 C42.1806543 33.20208008 42.18967773 34.10313477 42.19897461 35.03149414 C42.21057617 35.71856445 42.22217773 36.40563477 42.23413086 37.11352539 C39.71456343 38.38692021 37.19354437 39.65729181 34.67163086 40.92602539 C33.9671582 41.28245117 33.26268555 41.63887695 32.53686523 42.00610352 C31.12362523 42.71597983 29.70466673 43.41458365 28.28027344 44.10180664 C26.97356328 44.74791174 25.68580624 45.43494429 24.42822266 46.17211914 C21.98854274 47.4927021 20.03851352 48.30779101 17.28613281 47.64306641 C15.15453356 46.71542361 13.18194431 45.65531055 11.17163086 44.48852539 C10.49036133 44.11856445 9.8090918 43.74860352 9.10717773 43.36743164 C7.77155428 42.64124252 6.44107595 41.90549365 5.11645508 41.15942383 C2.53189051 39.72333114 -0.11105969 38.41400927 -2.76586914 37.11352539 C-2.76586914 35.46352539 -2.76586914 33.81352539 -2.76586914 32.11352539 C-1.77586914 31.78352539 -0.78586914 31.45352539 0.23413086 31.11352539 C-0.42586914 29.79352539 -1.08586914 28.47352539 -1.76586914 27.11352539 C6.80555943 26.97066825 6.80555943 26.97066825 10.23413086 28.11352539 C7.80025333 26.89658663 5.8157424 26.79392643 3.10913086 26.55102539 C2.19905273 26.46723633 1.28897461 26.38344727 0.35131836 26.29711914 C-0.34735352 26.2365332 -1.04602539 26.17594727 -1.76586914 26.11352539 C-2.92874957 20.58984333 -3.31721006 14.87022999 -2.20336914 9.30102539 C-1.77563373 6.1846674 -2.07474513 4.13719294 -2.76586914 1.11352539 C-1.76586914 0.11352539 -1.76586914 0.11352539 0 0 Z M4.23413086 6.11352539 C4.23413086 6.44352539 4.23413086 6.77352539 4.23413086 7.11352539 C6.87413086 7.11352539 9.51413086 7.11352539 12.23413086 7.11352539 C12.23413086 6.78352539 12.23413086 6.45352539 12.23413086 6.11352539 C9.59413086 6.11352539 6.95413086 6.11352539 4.23413086 6.11352539 Z M25.23413086 26.11352539 C25.56413086 27.43352539 25.89413086 28.75352539 26.23413086 30.11352539 C22.93413086 30.77352539 19.63413086 31.43352539 16.23413086 32.11352539 C19.96388634 34.52388603 19.96388634 34.52388603 23.17163086 33.36352539 C25.09903294 32.57683066 27.0174635 31.76740166 28.92163086 30.92602539 C31.23413086 30.11352539 31.23413086 30.11352539 34.23413086 31.11352539 C33.73913086 31.56727539 33.24413086 32.02102539 32.73413086 32.48852539 C31.00803749 33.98988058 31.00803749 33.98988058 31.23413086 36.11352539 C34.22565668 35.33872803 34.22565668 35.33872803 37.23413086 34.11352539 C37.56413086 33.12352539 37.89413086 32.13352539 38.23413086 31.11352539 C37.59475586 30.82477539 36.95538086 30.53602539 36.29663086 30.23852539 C34.23413086 29.11352539 34.23413086 29.11352539 33.23413086 27.11352539 C33.89413086 26.78352539 34.55413086 26.45352539 35.23413086 26.11352539 C31.93413086 26.11352539 28.63413086 26.11352539 25.23413086 26.11352539 Z M12.23413086 30.11352539 C14.21413086 31.10352539 14.21413086 31.10352539 16.23413086 32.11352539 C15.90413086 31.45352539 15.57413086 30.79352539 15.23413086 30.11352539 C14.24413086 30.11352539 13.25413086 30.11352539 12.23413086 30.11352539 Z M2.23413086 32.11352539 C3.46222177 33.75908238 3.46222177 33.75908238 5.23413086 35.11352539 C7.39712297 34.88594808 7.39712297 34.88594808 9.23413086 34.11352539 C6.92413086 33.45352539 4.61413086 32.79352539 2.23413086 32.11352539 Z M39.23413086 32.11352539 C38.90413086 32.77352539 38.57413086 33.43352539 38.23413086 34.11352539 C38.89413086 34.11352539 39.55413086 34.11352539 40.23413086 34.11352539 C39.90413086 33.45352539 39.57413086 32.79352539 39.23413086 32.11352539 Z M9.23413086 35.11352539 C9.23413086 35.77352539 9.23413086 36.43352539 9.23413086 37.11352539 C10.22413086 37.44352539 11.21413086 37.77352539 12.23413086 38.11352539 C12.23413086 37.45352539 12.23413086 36.79352539 12.23413086 36.11352539 C11.24413086 35.78352539 10.25413086 35.45352539 9.23413086 35.11352539 Z M25.23413086 37.11352539 C24.57413086 37.77352539 23.91413086 38.43352539 23.23413086 39.11352539 C24.22413086 39.11352539 25.21413086 39.11352539 26.23413086 39.11352539 C26.56413086 38.45352539 26.89413086 37.79352539 27.23413086 37.11352539 C26.57413086 37.11352539 25.91413086 37.11352539 25.23413086 37.11352539 Z M17.23413086 41.11352539 C20.28326314 42.12463632 20.28326314 42.12463632 23.23413086 41.11352539 C23.23413086 40.45352539 23.23413086 39.79352539 23.23413086 39.11352539 C20.77134285 39.11352539 19.38188967 39.96805402 17.23413086 41.11352539 Z " fill="#F6F8FC" transform="translate(21.765869140625,2.886474609375)"/>
<path d="M0 0 C1.65 0 3.3 0 5 0 C5.33 1.32 5.66 2.64 6 4 C6.66 4 7.32 4 8 4 C8.33 2.68 8.66 1.36 9 0 C10.65 0 12.3 0 14 0 C14 3.63 14 7.26 14 11 C9 12 9 12 6.9375 10.9375 C6.298125 10.628125 5.65875 10.31875 5 10 C2.76529595 10.78309467 2.76529595 10.78309467 1 12 C-1 10 -1 10 -1.23046875 8.125 C-1.21628906 7.42375 -1.20210937 6.7225 -1.1875 6 C-1.18105469 5.29875 -1.17460937 4.5975 -1.16796875 3.875 C-1 2 -1 2 0 0 Z " fill="#F7F9FA" transform="translate(29,58)"/>
<path d="M0 0 C2.4375 1.375 2.4375 1.375 3.875 3.6875 C4.55707165 6.94628676 3.93761501 8.4581097 2.4375 11.375 C-3.96346618 12.70350242 -3.96346618 12.70350242 -6.5 11.3125 C-8.02179053 8.53747021 -7.88693143 6.48954177 -7.5625 3.375 C-5.22102406 -0.13721392 -4.16099981 -1.014878 0 0 Z M-3.5625 3.375 C-3.5625 5.025 -3.5625 6.675 -3.5625 8.375 C-2.5725 8.045 -1.5825 7.715 -0.5625 7.375 C-0.5625 6.055 -0.5625 4.735 -0.5625 3.375 C-1.5525 3.375 -2.5425 3.375 -3.5625 3.375 Z " fill="#F6F9FD" transform="translate(53.5625,57.625)"/>
<path d="M0 0 C0 0.99 0 1.98 0 3 C-0.99 3.495 -0.99 3.495 -2 4 C-1.484375 4.4125 -0.96875 4.825 -0.4375 5.25 C0.036875 5.8275 0.51125 6.405 1 7 C0.6875 9.1875 0.6875 9.1875 0 11 C-5.625 12.125 -5.625 12.125 -9 11 C-8.34 9.68 -7.68 8.36 -7 7 C-7.66 6.34 -8.32 5.68 -9 5 C-8.75 2.4375 -8.75 2.4375 -8 0 C-5.13822943 -1.43088528 -3.06624227 -0.59991697 0 0 Z " fill="#F6F8FC" transform="translate(69,58)"/>
<path d="M0 0 C1.98 0.495 1.98 0.495 4 1 C3.67 3.31 3.34 5.62 3 8 C3.66 7.67 4.32 7.34 5 7 C5 4.69 5 2.38 5 0 C6.65 0 8.3 0 10 0 C10.36190476 7.23809524 10.36190476 7.23809524 8.8125 10.5 C7 12 7 12 4.4375 12.375 C2 12 2 12 0 10 C-1.08850943 6.33865009 -0.9464429 3.68061127 0 0 Z " fill="#F8F8FE" transform="translate(4,58)"/>
<path d="M0 0 C3.3 0 6.6 0 10 0 C10 0.99 10 1.98 10 3 C9.34 3.66 8.68 4.32 8 5 C7.28072705 7.31765729 6.6090107 9.65095874 6 12 C5.01 11.67 4.02 11.34 3 11 C2.67 8.36 2.34 5.72 2 3 C1.01 2.67 0.02 2.34 -1 2 C-0.67 1.34 -0.34 0.68 0 0 Z " fill="#F3F8FB" transform="translate(72,58)"/>
<path d="M0 0 C3.3 0 6.6 0 10 0 C10 0.99 10 1.98 10 3 C9.01 3 8.02 3 7 3 C7 5.64 7 8.28 7 11 C6.01 11.33 5.02 11.66 4 12 C2.875 5.25 2.875 5.25 4 3 C2.68 3 1.36 3 0 3 C0 2.01 0 1.02 0 0 Z " fill="#F5F8FD" transform="translate(16,58)"/>
<path d="M0 0 C4.29 0.33 8.58 0.66 13 1 C12.01 1.495 12.01 1.495 11 2 C11 2.66 11 3.32 11 4 C12.65 4 14.3 4 16 4 C16 4.33 16 4.66 16 5 C10.39 5 4.78 5 -1 5 C-0.67 3.35 -0.34 1.7 0 0 Z " fill="#F1F3F9" transform="translate(20,10)"/>
<path d="M0 0 C2.19050021 0.09017996 4.378466 0.24666208 6.5625 0.4375 C7.76003906 0.53933594 8.95757812 0.64117187 10.19140625 0.74609375 C11.11824219 0.82988281 12.04507813 0.91367188 13 1 C13 2.32 13 3.64 13 5 C7.72 5 2.44 5 -3 5 C-2.34 4.34 -1.68 3.68 -1 3 C1.125 3.375 1.125 3.375 3 4 C3 3.34 3 2.68 3 2 C1.68 1.67 0.36 1.34 -1 1 C-0.67 0.67 -0.34 0.34 0 0 Z " fill="#EFEFF9" transform="translate(51,10)"/>
<path d="M0 0 C2.79192205 -0.05380578 5.5828141 -0.09357669 8.375 -0.125 C9.1690625 -0.14175781 9.963125 -0.15851562 10.78125 -0.17578125 C12.85492015 -0.19335473 14.92883241 -0.10335168 17 0 C17.66 0.66 18.32 1.32 19 2 C18.67 2.99 18.34 3.98 18 5 C13.71 5 9.42 5 5 5 C5 4.34 5 3.68 5 3 C5.63808594 3.01160156 6.27617188 3.02320313 6.93359375 3.03515625 C7.75988281 3.04417969 8.58617187 3.05320312 9.4375 3.0625 C10.67306641 3.07990234 10.67306641 3.07990234 11.93359375 3.09765625 C13.99163938 3.23267348 13.99163938 3.23267348 15 2 C10.05 1.67 5.1 1.34 0 1 C0 0.67 0 0.34 0 0 Z " fill="#ECEEF4" transform="translate(46,17)"/>
<path d="M0 0 C6.27 0 12.54 0 19 0 C17 2 17 2 14.3984375 2.1953125 C13.40070312 2.17210937 12.40296875 2.14890625 11.375 2.125 C9.87066406 2.09792969 9.87066406 2.09792969 8.3359375 2.0703125 C7.56507812 2.04710937 6.79421875 2.02390625 6 2 C5.67 2.99 5.34 3.98 5 5 C3.35 5 1.7 5 0 5 C0 3.35 0 1.7 0 0 Z " fill="#F0F0F6" transform="translate(19,17)"/>
<path d="" fill="#FEFEFF" transform="translate(0,0)"/>
</svg>
